<svg width="1368" height="1576" viewBox="0 0 1368 1576" fill="none" xmlns="http://www.w3.org/2000/svg">
<path fill-rule="evenodd" clip-rule="evenodd" d="M675.188 247.479C693.991 246.724 715.148 245.314 736.792 242.951C837.96 228.073 1002.11 183.299 1224.5 75.5L1354 0C1364.17 102 1378.4 363.3 1354 592.5C1337.29 749.472 1275.69 916.497 1220.22 1037.23C1140.67 1275.36 915.88 1447 651 1447C319.629 1447 51 1178.37 51 847C51 515.629 319.629 247 651 247C659.101 247 667.165 247.161 675.188 247.479Z" fill="#A4DF89"/>
<path fill-rule="evenodd" clip-rule="evenodd" d="M647.057 698.152C670.778 681.064 695.251 663.698 720.5 646C758.296 619.507 794.719 592.253 829.7 564.579C800.912 526.555 751.577 428.102 755 295C764.055 356.083 799.427 488.049 868.925 532.888C925.464 486.25 977.914 438.802 1025.95 392.126C1012.79 370.87 988.735 314.216 980.5 227C987.627 268.465 1010.18 354.099 1044.49 373.943C1201.28 218.613 1308.29 74.2309 1353.5 0C1317.49 65.7482 1245.09 179.95 1143.08 312.881C1191.57 323.276 1286.55 305.578 1329.5 295C1252.25 327.783 1168.94 331.192 1130.98 328.551C1088.61 383.126 1041.39 440.6 989.777 498.981C1079.24 534.172 1239.7 511.416 1311 495C1177.39 547.821 1023.24 544.263 957.186 535.316C919.847 576.336 880.409 617.597 839.027 658.42C921.556 718.694 1164.57 713.782 1278 703.5C1033.46 762.221 855.048 731.146 789.531 706.13C767.032 727.314 744.014 748.303 720.5 769C678.863 805.649 639.44 843.523 602.23 882.017C742.288 1011.73 1049.9 978.997 1187.5 946C889.298 1081.37 635.359 1006.49 539.889 949.314C490.243 1005.21 445.138 1061.65 404.571 1116.88C544.352 1329.19 920.701 1242.64 1093 1172C775.102 1436.32 456.187 1314.93 333.364 1219.25C237.375 1365.15 175.779 1493.28 148.5 1566.5C109.833 1581.33 26 1587.6 0 1494C57.428 1285.01 152.887 1128.95 307.958 975.591C266.059 860.951 216.532 605.537 330.5 427C297 525.344 260.761 758.179 382.175 906.295C441.342 853.894 507.817 800.929 582.456 745.409C543.391 683.867 485.843 530.367 534.5 348C536.452 434.849 561.829 623.304 647.057 698.152Z" fill="#C0FD73"/>
</svg>
